# MagicaVoxel @ Ephtracy

# group
o 

# material
mtllib EnemyModel.mtl
usemtl palette

# normals
vn -1 0 0
vn 1 0 0
vn 0 0 1
vn 0 0 -1
vn 0 -1 0
vn 0 1 0

# texcoords
vt 0.841797 0.5
vt 0.845703 0.5
vt 0.958984 0.5
vt 0.990234 0.5
vt 0.994141 0.5

# verts
v -0.2 0 0.4
v -0.2 0 0.1
v -0.2 0 -0.1
v -0.2 0 -0.4
v -0.2 0.3 0.4
v -0.2 0.3 0.1
v -0.2 0.3 -0.1
v -0.2 0.3 -0.4
v -0.2 0.6 0.5
v -0.2 0.6 0.4
v -0.2 0.6 -0.4
v -0.2 0.6 -0.5
v -0.2 0.7 0.5
v -0.2 0.7 0.4
v -0.2 0.7 -0.4
v -0.2 0.7 -0.5
v -0.2 0.8 0.4
v -0.2 0.8 0.2
v -0.2 0.8 -0.2
v -0.2 0.8 -0.4
v -0.2 0.9 0.2
v -0.2 0.9 -0.2
v -0.2 1 0.2
v -0.2 1 -0.2
v -0.1 0.5 0.5
v -0.1 0.5 0.4
v -0.1 0.5 -0.4
v -0.1 0.5 -0.5
v -0.1 0.6 0.5
v -0.1 0.6 0.4
v -0.1 0.6 -0.4
v -0.1 0.6 -0.5
v 0 0.4 0.5
v 0 0.4 0.4
v 0 0.4 -0.4
v 0 0.4 -0.5
v 0 0.5 0.5
v 0 0.5 0.4
v 0 0.5 -0.4
v 0 0.5 -0.5
v 0.1 0.3 0.5
v 0.1 0.3 0.4
v 0.1 0.3 -0.4
v 0.1 0.3 -0.5
v 0.1 0.4 0.5
v 0.1 0.4 0.4
v 0.1 0.4 -0.4
v 0.1 0.4 -0.5
v 0.2 0 0.4
v 0.2 0 0.1
v 0.2 0 -0.1
v 0.2 0 -0.4
v 0.2 0.3 0.4
v 0.2 0.3 0.1
v 0.2 0.3 -0.1
v 0.2 0.3 -0.4
v 0.2 0.4 0.1
v 0.2 0.4 -0.1
v 0.2 0.5 0.2
v 0.2 0.5 0.1
v 0.2 0.5 -0.1
v 0.2 0.5 -0.2
v 0.2 0.6 0.5
v 0.2 0.6 0.4
v 0.2 0.6 0.2
v 0.2 0.6 0.1
v 0.2 0.6 -0.1
v 0.2 0.6 -0.2
v 0.2 0.6 -0.4
v 0.2 0.6 -0.5
v 0.2 0.7 0.5
v 0.2 0.7 0.4
v 0.2 0.7 0.1
v 0.2 0.7 -0.1
v 0.2 0.7 -0.4
v 0.2 0.7 -0.5
v 0.2 0.8 0.4
v 0.2 0.8 0.2
v 0.2 0.8 -0.2
v 0.2 0.8 -0.4
v 0.2 0.9 0.2
v 0.2 0.9 -0.2
v 0.2 1 0.2
v 0.2 1 -0.2
v 0.3 0.5 0.5
v 0.3 0.5 0.4
v 0.3 0.5 -0.4
v 0.3 0.5 -0.5
v 0.3 0.6 0.5
v 0.3 0.6 0.4
v 0.3 0.6 -0.4
v 0.3 0.6 -0.5
v 0.4 0.3 0.5
v 0.4 0.3 0.4
v 0.4 0.3 -0.4
v 0.4 0.3 -0.5
v 0.4 0.5 0.5
v 0.4 0.5 0.4
v 0.4 0.5 -0.4
v 0.4 0.5 -0.5
v -0.2 0.6 0.5
v -0.2 0.7 0.5
v -0.1 0.5 0.5
v -0.1 0.6 0.5
v 0 0.4 0.5
v 0 0.5 0.5
v 0.1 0.3 0.5
v 0.1 0.4 0.5
v 0.2 0.6 0.5
v 0.2 0.7 0.5
v 0.3 0.5 0.5
v 0.3 0.6 0.5
v 0.4 0.3 0.5
v 0.4 0.5 0.5
v -0.2 0 0.4
v -0.2 0.3 0.4
v -0.2 0.6 0.4
v -0.2 0.7 0.4
v -0.2 0.8 0.4
v -0.1 0.5 0.4
v -0.1 0.6 0.4
v 0 0.4 0.4
v 0 0.5 0.4
v 0.1 0.3 0.4
v 0.1 0.4 0.4
v 0.2 0 0.4
v 0.2 0.3 0.4
v 0.2 0.7 0.4
v 0.2 0.8 0.4
v -0.2 0.8 0.2
v -0.2 0.9 0.2
v -0.2 1 0.2
v 0.2 0.8 0.2
v 0.2 0.9 0.2
v 0.2 1 0.2
v -0.2 0 -0.1
v -0.2 0.3 -0.1
v 0.2 0 -0.1
v 0.2 0.3 -0.1
v 0.2 0.3 -0.4
v 0.2 0.6 -0.4
v 0.3 0.5 -0.4
v 0.3 0.6 -0.4
v 0.4 0.3 -0.4
v 0.4 0.5 -0.4
v 0.2 0.3 0.4
v 0.2 0.6 0.4
v 0.3 0.5 0.4
v 0.3 0.6 0.4
v 0.4 0.3 0.4
v 0.4 0.5 0.4
v -0.2 0 0.1
v -0.2 0.3 0.1
v 0.2 0 0.1
v 0.2 0.3 0.1
v -0.2 0.8 -0.2
v -0.2 0.9 -0.2
v -0.2 1 -0.2
v 0.2 0.8 -0.2
v 0.2 0.9 -0.2
v 0.2 1 -0.2
v -0.2 0 -0.4
v -0.2 0.3 -0.4
v -0.2 0.6 -0.4
v -0.2 0.7 -0.4
v -0.2 0.8 -0.4
v -0.1 0.5 -0.4
v -0.1 0.6 -0.4
v 0 0.4 -0.4
v 0 0.5 -0.4
v 0.1 0.3 -0.4
v 0.1 0.4 -0.4
v 0.2 0 -0.4
v 0.2 0.3 -0.4
v 0.2 0.7 -0.4
v 0.2 0.8 -0.4
v -0.2 0.6 -0.5
v -0.2 0.7 -0.5
v -0.1 0.5 -0.5
v -0.1 0.6 -0.5
v 0 0.4 -0.5
v 0 0.5 -0.5
v 0.1 0.3 -0.5
v 0.1 0.4 -0.5
v 0.2 0.6 -0.5
v 0.2 0.7 -0.5
v 0.3 0.5 -0.5
v 0.3 0.6 -0.5
v 0.4 0.3 -0.5
v 0.4 0.5 -0.5
v -0.2 0 0.4
v 0.2 0 0.4
v -0.2 0 0.1
v 0.2 0 0.1
v -0.2 0 -0.1
v 0.2 0 -0.1
v -0.2 0 -0.4
v 0.2 0 -0.4
v 0.1 0.3 0.5
v 0.4 0.3 0.5
v 0.1 0.3 0.4
v 0.2 0.3 0.4
v 0.4 0.3 0.4
v -0.2 0.3 0.1
v 0.2 0.3 0.1
v -0.2 0.3 -0.1
v 0.2 0.3 -0.1
v 0.1 0.3 -0.4
v 0.2 0.3 -0.4
v 0.4 0.3 -0.4
v 0.1 0.3 -0.5
v 0.4 0.3 -0.5
v 0 0.4 0.5
v 0.1 0.4 0.5
v 0 0.4 0.4
v 0.1 0.4 0.4
v 0 0.4 -0.4
v 0.1 0.4 -0.4
v 0 0.4 -0.5
v 0.1 0.4 -0.5
v -0.1 0.5 0.5
v 0 0.5 0.5
v -0.1 0.5 0.4
v 0 0.5 0.4
v -0.1 0.5 -0.4
v 0 0.5 -0.4
v -0.1 0.5 -0.5
v 0 0.5 -0.5
v -0.2 0.6 0.5
v -0.1 0.6 0.5
v -0.2 0.6 0.4
v -0.1 0.6 0.4
v -0.2 0.6 -0.4
v -0.1 0.6 -0.4
v -0.2 0.6 -0.5
v -0.1 0.6 -0.5
v 0.3 0.5 0.5
v 0.4 0.5 0.5
v 0.3 0.5 0.4
v 0.4 0.5 0.4
v 0.3 0.5 -0.4
v 0.4 0.5 -0.4
v 0.3 0.5 -0.5
v 0.4 0.5 -0.5
v 0.2 0.6 0.5
v 0.3 0.6 0.5
v 0.2 0.6 0.4
v 0.3 0.6 0.4
v 0.2 0.6 -0.4
v 0.3 0.6 -0.4
v 0.2 0.6 -0.5
v 0.3 0.6 -0.5
v -0.2 0.7 0.5
v 0.2 0.7 0.5
v -0.2 0.7 0.4
v 0.2 0.7 0.4
v -0.2 0.7 -0.4
v 0.2 0.7 -0.4
v -0.2 0.7 -0.5
v 0.2 0.7 -0.5
v -0.2 0.8 0.4
v 0.2 0.8 0.4
v -0.2 0.8 0.2
v 0.2 0.8 0.2
v -0.2 0.8 -0.2
v 0.2 0.8 -0.2
v -0.2 0.8 -0.4
v 0.2 0.8 -0.4
v -0.2 1 0.2
v 0.2 1 0.2
v -0.2 1 -0.2
v 0.2 1 -0.2

# faces
f 5/4/1 2/4/1 1/4/1
f 6/4/1 2/4/1 5/4/1
f 7/4/1 4/4/1 3/4/1
f 8/4/1 4/4/1 7/4/1
f 10/3/1 6/3/1 5/3/1
f 10/3/1 7/3/1 6/3/1
f 10/3/1 8/3/1 7/3/1
f 11/3/1 8/3/1 10/3/1
f 13/1/1 10/1/1 9/1/1
f 14/3/1 11/3/1 10/3/1
f 14/1/1 10/1/1 13/1/1
f 15/1/1 12/1/1 11/1/1
f 15/3/1 11/3/1 14/3/1
f 16/1/1 12/1/1 15/1/1
f 17/3/1 15/3/1 14/3/1
f 18/3/1 15/3/1 17/3/1
f 19/3/1 15/3/1 18/3/1
f 20/3/1 15/3/1 19/3/1
f 21/5/1 19/5/1 18/5/1
f 22/5/1 19/5/1 21/5/1
f 23/1/1 22/1/1 21/1/1
f 24/1/1 22/1/1 23/1/1
f 29/1/1 26/1/1 25/1/1
f 30/1/1 26/1/1 29/1/1
f 31/1/1 28/1/1 27/1/1
f 32/1/1 28/1/1 31/1/1
f 37/1/1 34/1/1 33/1/1
f 38/1/1 34/1/1 37/1/1
f 39/1/1 36/1/1 35/1/1
f 40/1/1 36/1/1 39/1/1
f 45/1/1 42/1/1 41/1/1
f 46/1/1 42/1/1 45/1/1
f 47/1/1 44/1/1 43/1/1
f 48/1/1 44/1/1 47/1/1
f 49/4/2 50/4/2 53/4/2
f 53/4/2 50/4/2 54/4/2
f 51/4/2 52/4/2 55/4/2
f 55/4/2 52/4/2 56/4/2
f 53/3/2 54/3/2 57/3/2
f 54/3/2 55/3/2 57/3/2
f 55/3/2 56/3/2 57/3/2
f 57/3/2 56/3/2 58/3/2
f 53/3/2 57/3/2 59/3/2
f 57/2/2 58/2/2 60/2/2
f 59/3/2 57/3/2 60/3/2
f 58/3/2 56/3/2 61/3/2
f 60/2/2 58/2/2 61/2/2
f 61/3/2 56/3/2 62/3/2
f 53/3/2 59/3/2 64/3/2
f 59/2/2 60/2/2 65/2/2
f 64/3/2 59/3/2 65/3/2
f 60/5/2 61/5/2 66/5/2
f 65/2/2 60/2/2 66/2/2
f 61/2/2 62/2/2 67/2/2
f 66/5/2 61/5/2 67/5/2
f 62/3/2 56/3/2 68/3/2
f 67/2/2 62/2/2 68/2/2
f 68/3/2 56/3/2 69/3/2
f 63/1/2 64/1/2 71/1/2
f 64/3/2 65/3/2 72/3/2
f 71/1/2 64/1/2 72/1/2
f 65/3/2 66/3/2 72/3/2
f 66/2/2 67/2/2 73/2/2
f 72/3/2 66/3/2 73/3/2
f 68/3/2 69/3/2 74/3/2
f 73/2/2 67/2/2 74/2/2
f 67/3/2 68/3/2 74/3/2
f 69/1/2 70/1/2 75/1/2
f 74/3/2 69/3/2 75/3/2
f 75/1/2 70/1/2 76/1/2
f 72/3/2 73/3/2 77/3/2
f 73/3/2 74/3/2 77/3/2
f 74/3/2 75/3/2 77/3/2
f 77/3/2 75/3/2 78/3/2
f 78/3/2 75/3/2 79/3/2
f 79/3/2 75/3/2 80/3/2
f 78/5/2 79/5/2 81/5/2
f 81/5/2 79/5/2 82/5/2
f 81/1/2 82/1/2 83/1/2
f 83/1/2 82/1/2 84/1/2
f 85/1/2 86/1/2 89/1/2
f 89/1/2 86/1/2 90/1/2
f 87/1/2 88/1/2 91/1/2
f 91/1/2 88/1/2 92/1/2
f 93/1/2 94/1/2 97/1/2
f 97/1/2 94/1/2 98/1/2
f 95/1/2 96/1/2 99/1/2
f 99/1/2 96/1/2 100/1/2
f 104/1/3 102/1/3 101/1/3
f 106/1/3 104/1/3 103/1/3
f 108/1/3 106/1/3 105/1/3
f 109/1/3 102/1/3 104/1/3
f 109/1/3 108/1/3 107/1/3
f 109/1/3 106/1/3 108/1/3
f 109/1/3 104/1/3 106/1/3
f 110/1/3 102/1/3 109/1/3
f 111/1/3 109/1/3 107/1/3
f 112/1/3 109/1/3 111/1/3
f 113/1/3 111/1/3 107/1/3
f 114/1/3 111/1/3 113/1/3
f 120/3/3 117/3/3 116/3/3
f 121/3/3 117/3/3 120/3/3
f 122/3/3 120/3/3 116/3/3
f 123/3/3 120/3/3 122/3/3
f 124/4/3 116/4/3 115/4/3
f 124/3/3 122/3/3 116/3/3
f 125/3/3 122/3/3 124/3/3
f 126/4/3 124/4/3 115/4/3
f 127/4/3 124/4/3 126/4/3
f 128/3/3 119/3/3 118/3/3
f 129/3/3 119/3/3 128/3/3
f 133/5/3 131/5/3 130/5/3
f 134/1/3 132/1/3 131/1/3
f 134/5/3 131/5/3 133/5/3
f 135/1/3 132/1/3 134/1/3
f 138/4/3 137/4/3 136/4/3
f 139/4/3 137/4/3 138/4/3
f 142/1/3 141/1/3 140/1/3
f 143/1/3 141/1/3 142/1/3
f 144/1/3 142/1/3 140/1/3
f 145/1/3 142/1/3 144/1/3
f 146/1/4 147/1/4 148/1/4
f 148/1/4 147/1/4 149/1/4
f 146/1/4 148/1/4 150/1/4
f 150/1/4 148/1/4 151/1/4
f 152/4/4 153/4/4 154/4/4
f 154/4/4 153/4/4 155/4/4
f 156/5/4 157/5/4 159/5/4
f 157/1/4 158/1/4 160/1/4
f 159/5/4 157/5/4 160/5/4
f 160/1/4 158/1/4 161/1/4
f 163/3/4 164/3/4 167/3/4
f 167/3/4 164/3/4 168/3/4
f 163/3/4 167/3/4 169/3/4
f 169/3/4 167/3/4 170/3/4
f 162/4/4 163/4/4 171/4/4
f 163/3/4 169/3/4 171/3/4
f 171/3/4 169/3/4 172/3/4
f 162/4/4 171/4/4 173/4/4
f 173/4/4 171/4/4 174/4/4
f 165/3/4 166/3/4 175/3/4
f 175/3/4 166/3/4 176/3/4
f 177/1/4 178/1/4 180/1/4
f 179/1/4 180/1/4 182/1/4
f 181/1/4 182/1/4 184/1/4
f 180/1/4 178/1/4 185/1/4
f 183/1/4 184/1/4 185/1/4
f 184/1/4 182/1/4 185/1/4
f 182/1/4 180/1/4 185/1/4
f 185/1/4 178/1/4 186/1/4
f 183/1/4 185/1/4 187/1/4
f 187/1/4 185/1/4 188/1/4
f 183/1/4 187/1/4 189/1/4
f 189/1/4 187/1/4 190/1/4
f 193/4/5 192/4/5 191/4/5
f 194/4/5 192/4/5 193/4/5
f 197/4/5 196/4/5 195/4/5
f 198/4/5 196/4/5 197/4/5
f 201/1/5 200/1/5 199/1/5
f 202/1/5 200/1/5 201/1/5
f 203/1/5 200/1/5 202/1/5
f 206/3/5 205/3/5 204/3/5
f 207/3/5 205/3/5 206/3/5
f 211/1/5 209/1/5 208/1/5
f 211/1/5 210/1/5 209/1/5
f 212/1/5 210/1/5 211/1/5
f 215/1/5 214/1/5 213/1/5
f 216/1/5 214/1/5 215/1/5
f 219/1/5 218/1/5 217/1/5
f 220/1/5 218/1/5 219/1/5
f 223/1/5 222/1/5 221/1/5
f 224/1/5 222/1/5 223/1/5
f 227/1/5 226/1/5 225/1/5
f 228/1/5 226/1/5 227/1/5
f 231/1/5 230/1/5 229/1/5
f 232/1/5 230/1/5 231/1/5
f 235/1/5 234/1/5 233/1/5
f 236/1/5 234/1/5 235/1/5
f 237/1/6 238/1/6 239/1/6
f 239/1/6 238/1/6 240/1/6
f 241/1/6 242/1/6 243/1/6
f 243/1/6 242/1/6 244/1/6
f 245/1/6 246/1/6 247/1/6
f 247/1/6 246/1/6 248/1/6
f 249/1/6 250/1/6 251/1/6
f 251/1/6 250/1/6 252/1/6
f 253/1/6 254/1/6 255/1/6
f 255/1/6 254/1/6 256/1/6
f 257/1/6 258/1/6 259/1/6
f 259/1/6 258/1/6 260/1/6
f 261/3/6 262/3/6 263/3/6
f 263/3/6 262/3/6 264/3/6
f 265/3/6 266/3/6 267/3/6
f 267/3/6 266/3/6 268/3/6
f 269/1/6 270/1/6 271/1/6
f 271/1/6 270/1/6 272/1/6
